<svg width="85" height="25" viewBox="0 0 85 25" fill="none" xmlns="http://www.w3.org/2000/svg">
<path d="M11.5422 13.4101C9.42661 13.4101 7.57032 13.1405 5.97328 12.6012C4.39698 12.0412 3.17328 11.2531 2.30217 10.2368C1.43106 9.22047 0.995501 8.03825 0.995501 6.6901C0.995501 5.34196 1.43106 4.1701 2.30217 3.17455C3.17328 2.15825 4.39698 1.38047 5.97328 0.841214C7.57032 0.281215 9.42661 0.00121498 11.5422 0.00121498C13.6577 0.00121498 15.514 0.281215 17.1111 0.841214C18.7081 1.38047 19.9422 2.15825 20.8133 3.17455C21.6844 4.1701 22.1199 5.34196 22.1199 6.6901C22.1199 8.03825 21.6844 9.22047 20.8133 10.2368C19.9422 11.2531 18.7081 12.0412 17.1111 12.6012C15.514 13.1405 13.6577 13.4101 11.5422 13.4101ZM11.5422 4.66788C10.0074 4.66788 8.75254 4.84418 7.77772 5.19677C6.80291 5.54936 6.3155 6.04714 6.3155 6.6901C6.3155 7.33307 6.80291 7.83084 7.77772 8.18344C8.75254 8.53603 10.0074 8.71233 11.5422 8.71233C13.0562 8.71233 14.3007 8.53603 15.2755 8.18344C16.2503 7.83084 16.7377 7.33307 16.7377 6.6901C16.7377 6.04714 16.2503 5.54936 15.2755 5.19677C14.3007 4.84418 13.0562 4.66788 11.5422 4.66788ZM18.5111 19.3834V24.6412H13.4711V19.3834H9.61328V24.6412H4.57328V19.3834H-5.42477e-05V14.5923H23.0533V19.3834H18.5111ZM36.0856 9.61455C34.7374 11.4605 33.1093 12.902 31.2011 13.939C29.3137 14.9553 27.2811 15.4738 25.1033 15.4945V10.4545C26.5759 10.4338 27.9759 9.99825 29.3033 9.14788C30.6307 8.27677 31.7404 7.05307 32.6322 5.47677C33.5241 3.90047 34.0841 2.08566 34.3122 0.0323255L39.4456 0.841214C39.2381 2.62492 38.8648 4.15973 38.3256 5.44566L47.9078 11.3257L45.2322 15.6501L36.0856 9.61455ZM47.69 18.3568V23.3345H24.6367V18.3568H47.69ZM59.0112 9.92566V14.2812H50.0512V9.92566H59.0112ZM78.4469 16.459V0.187881H83.518V16.459H78.4469ZM68.678 14.0012C67.2261 14.0012 65.9298 13.7108 64.7891 13.1301C63.6483 12.5494 62.7565 11.7301 62.1135 10.6723C61.4913 9.61455 61.1802 8.41159 61.1802 7.06344C61.1802 5.71529 61.4913 4.5227 62.1135 3.48566C62.7565 2.42788 63.6483 1.60862 64.7891 1.02788C65.9298 0.447141 67.2261 0.156771 68.678 0.156771C70.1506 0.156771 71.4469 0.447141 72.5669 1.02788C73.7076 1.60862 74.5891 2.42788 75.2113 3.48566C75.8543 4.5227 76.1757 5.71529 76.1757 7.06344C76.1757 8.41159 75.8543 9.61455 75.2113 10.6723C74.5891 11.7301 73.7076 12.5494 72.5669 13.1301C71.4469 13.7108 70.1506 14.0012 68.678 14.0012ZM68.678 4.51233C67.952 4.51233 67.3506 4.74047 66.8735 5.19677C66.4172 5.65307 66.1891 6.27529 66.1891 7.06344C66.1891 7.85159 66.4172 8.48418 66.8735 8.96121C67.3506 9.41751 67.952 9.64566 68.678 9.64566C69.4039 9.64566 69.995 9.41751 70.4513 8.96121C70.9283 8.48418 71.1669 7.85159 71.1669 7.06344C71.1669 6.27529 70.9283 5.65307 70.4513 5.19677C69.995 4.74047 69.4039 4.51233 68.678 4.51233ZM73.0646 20.939C71.7787 22.0175 70.2543 22.8264 68.4913 23.3657C66.7283 23.9049 64.872 24.1745 62.9224 24.1745V19.1968C65.0794 19.2175 66.9461 18.8027 68.5224 17.9523C70.1194 17.102 71.1254 15.9197 71.5402 14.4057L76.5802 15.339C76.3313 16.1686 76.1239 16.7805 75.958 17.1745L84.4824 19.7568L82.7713 24.4857L73.0646 20.939Z" fill="#0055FF"/>
</svg>
