<svg width="99" height="19" viewBox="0 0 99 19" fill="none" xmlns="http://www.w3.org/2000/svg">
<path d="M16.06 2.66204L10.472 13.508V18.238H5.588V13.508L0 2.66204H5.588L8.074 8.18404L10.56 2.66204H16.06ZM23.0663 18.392C21.8196 18.392 20.6976 18.1354 19.7003 17.622C18.703 17.1087 17.9183 16.3754 17.3463 15.422C16.789 14.454 16.5103 13.3247 16.5103 12.034C16.5103 10.7434 16.789 9.62137 17.3463 8.66804C17.9183 7.70004 18.703 6.95937 19.7003 6.44604C20.6976 5.9327 21.8196 5.67604 23.0663 5.67604C24.313 5.67604 25.435 5.9327 26.4323 6.44604C27.4296 6.95937 28.207 7.70004 28.7643 8.66804C29.3363 9.62137 29.6223 10.7434 29.6223 12.034C29.6223 13.3247 29.3363 14.454 28.7643 15.422C28.207 16.3754 27.4296 17.1087 26.4323 17.622C25.435 18.1354 24.313 18.392 23.0663 18.392ZM23.0663 14.168C23.521 14.168 23.9023 13.992 24.2103 13.64C24.5183 13.2734 24.6723 12.738 24.6723 12.034C24.6723 11.33 24.5183 10.802 24.2103 10.45C23.9023 10.0834 23.521 9.90004 23.0663 9.90004C22.6116 9.90004 22.2303 10.0834 21.9223 10.45C21.6143 10.802 21.4603 11.33 21.4603 12.034C21.4603 12.738 21.607 13.2734 21.9003 13.64C22.2083 13.992 22.597 14.168 23.0663 14.168ZM44.2906 5.83004V18.238H39.4066V16.346C39.0253 16.9327 38.512 17.4094 37.8666 17.776C37.236 18.1427 36.4806 18.326 35.6006 18.326C34.178 18.326 33.0633 17.8494 32.2566 16.896C31.4646 15.9427 31.0686 14.652 31.0686 13.024V5.83004H35.9306V12.408C35.9306 12.9947 36.0846 13.464 36.3926 13.816C36.7153 14.1534 37.1406 14.322 37.6686 14.322C38.2113 14.322 38.6366 14.1534 38.9446 13.816C39.2526 13.464 39.4066 12.9947 39.4066 12.408V5.83004H44.2906ZM54.2185 14.08V18.238H52.3705C48.9678 18.238 47.2665 16.544 47.2665 13.156V9.90004H45.7265V5.83004H47.2665V2.83804H52.1505V5.83004H54.1745V9.90004H52.1505V13.244C52.1505 13.5374 52.2165 13.75 52.3485 13.882C52.4952 14.014 52.7298 14.08 53.0525 14.08H54.2185ZM64.7685 5.74204C66.1912 5.74204 67.2985 6.2187 68.0905 7.17204C68.8972 8.12537 69.3005 9.41604 69.3005 11.044V18.238H64.4385V11.66C64.4385 11.0734 64.2772 10.6114 63.9545 10.274C63.6465 9.92204 63.2285 9.74604 62.7005 9.74604C62.1578 9.74604 61.7325 9.92204 61.4245 10.274C61.1165 10.6114 60.9625 11.0734 60.9625 11.66V18.238H56.0785V1.95804H60.9625V7.72204C61.3438 7.13537 61.8498 6.6587 62.4805 6.29204C63.1258 5.92537 63.8885 5.74204 64.7685 5.74204ZM81.0104 8.71204V12.738H70.7584V8.71204H81.0104ZM86.5581 4.84004C85.7075 4.84004 85.0255 4.6127 84.5121 4.15804C83.9988 3.70337 83.7421 3.13137 83.7421 2.44204C83.7421 1.73804 83.9988 1.1587 84.5121 0.704036C85.0255 0.234703 85.7075 3.5882e-05 86.5581 3.5882e-05C87.3941 3.5882e-05 88.0688 0.234703 88.5821 0.704036C89.0955 1.1587 89.3521 1.73804 89.3521 2.44204C89.3521 3.13137 89.0955 3.70337 88.5821 4.15804C88.0688 4.6127 87.3941 4.84004 86.5581 4.84004ZM88.9781 5.83004V18.238H84.0941V5.83004H88.9781ZM98.906 14.08V18.238H97.058C93.6553 18.238 91.954 16.544 91.954 13.156V9.90004H90.414V5.83004H91.954V2.83804H96.838V5.83004H98.862V9.90004H96.838V13.244C96.838 13.5374 96.904 13.75 97.036 13.882C97.1827 14.014 97.4173 14.08 97.74 14.08H98.906Z" fill="#0055FF"/>
</svg>
