<svg width="98" height="25" viewBox="0 0 98 25" fill="none" xmlns="http://www.w3.org/2000/svg">
<path d="M15.334 5.83L7.39197 24.178H2.04597L5.16997 17.622L-2.93124e-05 5.83H5.43397L7.76597 12.122L9.94397 5.83H15.334ZM22.1046 18.392C20.858 18.392 19.736 18.1353 18.7386 17.622C17.7413 17.1087 16.9566 16.3753 16.3846 15.422C15.8273 14.454 15.5486 13.3247 15.5486 12.034C15.5486 10.7433 15.8273 9.62133 16.3846 8.668C16.9566 7.7 17.7413 6.95933 18.7386 6.446C19.736 5.93266 20.858 5.676 22.1046 5.676C23.3513 5.676 24.4733 5.93266 25.4706 6.446C26.468 6.95933 27.2453 7.7 27.8026 8.668C28.3746 9.62133 28.6606 10.7433 28.6606 12.034C28.6606 13.3247 28.3746 14.454 27.8026 15.422C27.2453 16.3753 26.468 17.1087 25.4706 17.622C24.4733 18.1353 23.3513 18.392 22.1046 18.392ZM22.1046 14.168C22.5593 14.168 22.9406 13.992 23.2486 13.64C23.5566 13.2733 23.7106 12.738 23.7106 12.034C23.7106 11.33 23.5566 10.802 23.2486 10.45C22.9406 10.0833 22.5593 9.9 22.1046 9.9C21.65 9.9 21.2686 10.0833 20.9606 10.45C20.6526 10.802 20.4986 11.33 20.4986 12.034C20.4986 12.738 20.6453 13.2733 20.9386 13.64C21.2466 13.992 21.6353 14.168 22.1046 14.168ZM43.329 5.83V18.238H38.445V16.346C38.0636 16.9327 37.5503 17.4093 36.905 17.776C36.2743 18.1427 35.519 18.326 34.639 18.326C33.2163 18.326 32.1016 17.8493 31.295 16.896C30.503 15.9427 30.107 14.652 30.107 13.024V5.83H34.969V12.408C34.969 12.9947 35.123 13.464 35.431 13.816C35.7536 14.1533 36.179 14.322 36.707 14.322C37.2496 14.322 37.675 14.1533 37.983 13.816C38.291 13.464 38.445 12.9947 38.445 12.408V5.83H43.329ZM53.2568 14.08V18.238H51.4088C48.0061 18.238 46.3048 16.544 46.3048 13.156V9.9H44.7648V5.83H46.3048V2.838H51.1888V5.83H53.2128V9.9H51.1888V13.244C51.1888 13.5373 51.2548 13.75 51.3868 13.882C51.5335 14.014 51.7681 14.08 52.0908 14.08H53.2568ZM63.8068 5.742C65.2295 5.742 66.3368 6.21867 67.1288 7.172C67.9355 8.12533 68.3388 9.416 68.3388 11.044V18.238H63.4768V11.66C63.4768 11.0733 63.3155 10.6113 62.9928 10.274C62.6848 9.922 62.2668 9.746 61.7388 9.746C61.1962 9.746 60.7708 9.922 60.4628 10.274C60.1548 10.6113 60.0008 11.0733 60.0008 11.66V18.238H55.1168V1.958H60.0008V7.722C60.3822 7.13533 60.8882 6.65867 61.5188 6.292C62.1642 5.92533 62.9268 5.742 63.8068 5.742ZM80.0487 8.712V12.738H69.7967V8.712H80.0487ZM85.5965 4.84C84.7458 4.84 84.0638 4.61266 83.5505 4.158C83.0371 3.70333 82.7805 3.13133 82.7805 2.442C82.7805 1.738 83.0371 1.15866 83.5505 0.703998C84.0638 0.234664 84.7458 -2.26498e-06 85.5965 -2.26498e-06C86.4325 -2.26498e-06 87.1071 0.234664 87.6205 0.703998C88.1338 1.15866 88.3905 1.738 88.3905 2.442C88.3905 3.13133 88.1338 3.70333 87.6205 4.158C87.1071 4.61266 86.4325 4.84 85.5965 4.84ZM88.0165 5.83V18.238H83.1325V5.83H88.0165ZM97.9443 14.08V18.238H96.0963C92.6936 18.238 90.9923 16.544 90.9923 13.156V9.9H89.4523V5.83H90.9923V2.838H95.8763V5.83H97.9003V9.9H95.8763V13.244C95.8763 13.5373 95.9423 13.75 96.0743 13.882C96.221 14.014 96.4556 14.08 96.7783 14.08H97.9443Z" fill="#0055FF"/>
</svg>
