<svg width="100" height="100" viewBox="0 0 100 100" fill="none" xmlns="http://www.w3.org/2000/svg">
<path d="M50 0C77.6142 0 100 22.3858 100 50C100 77.6142 77.6142 100 50 100C22.3858 100 0 77.6142 0 50C0 22.3858 22.3858 0 50 0ZM75.8086 30.0254C74.4418 28.6586 72.2253 28.6587 70.8584 30.0254L41.25 59.6328L29.1416 47.5254C27.7748 46.1586 25.5592 46.1587 24.1924 47.5254C22.8255 48.8922 22.8255 51.1078 24.1924 52.4746L38.7754 67.0586C40.1423 68.4251 42.3589 68.4253 43.7256 67.0586L75.8086 34.9746C77.175 33.6079 77.175 31.3921 75.8086 30.0254Z" fill="#0055FF"/>
</svg>
