<svg width="46" height="20" viewBox="0 0 46 20" fill="none" xmlns="http://www.w3.org/2000/svg">
<mask id="path-1-inside-1_3083_30191" fill="white">
<path d="M23 0C25.4832 0 27.7535 0.906954 29.502 2.40527C31.2499 0.909094 33.5188 0.00390625 36 0.00390625C41.5228 0.00390625 46 4.48106 46 10.0039C46 15.5268 41.5228 20.0039 36 20.0039C33.5163 20.0039 31.2457 19.0965 29.4971 17.5977C27.7491 19.0938 25.4812 20 23 20C20.5175 20 18.2483 19.0932 16.5 17.5957C14.7517 19.0932 12.4825 20 10 20C4.47715 20 0 15.5228 0 10C0 4.47715 4.47715 0 10 0C12.4822 0 14.7518 0.906071 16.5 2.40332C18.2482 0.906071 20.5178 0 23 0Z"/>
</mask>
<path d="M23 0C25.4832 0 27.7535 0.906954 29.502 2.40527C31.2499 0.909094 33.5188 0.00390625 36 0.00390625C41.5228 0.00390625 46 4.48106 46 10.0039C46 15.5268 41.5228 20.0039 36 20.0039C33.5163 20.0039 31.2457 19.0965 29.4971 17.5977C27.7491 19.0938 25.4812 20 23 20C20.5175 20 18.2483 19.0932 16.5 17.5957C14.7517 19.0932 12.4825 20 10 20C4.47715 20 0 15.5228 0 10C0 4.47715 4.47715 0 10 0C12.4822 0 14.7518 0.906071 16.5 2.40332C18.2482 0.906071 20.5178 0 23 0Z" fill="#98B6F1"/>
<path d="M29.502 2.40527L28.8513 3.16461L29.5016 3.7219L30.1522 3.16497L29.502 2.40527ZM29.4971 17.5977L30.1479 16.8384L29.4975 16.281L28.8468 16.838L29.4971 17.5977ZM16.5 17.5957L17.1505 16.8362L16.5 16.279L15.8495 16.8362L16.5 17.5957ZM16.5 2.40332L15.8495 3.16284L16.5 3.71994L17.1505 3.16284L16.5 2.40332ZM23 0V1C25.235 1 27.2766 1.81526 28.8513 3.16461L29.502 2.40527L30.1526 1.64593C28.2303 -0.00135262 25.7314 -1 23 -1V0ZM29.502 2.40527L30.1522 3.16497C31.7263 1.81763 33.7667 1.00391 36 1.00391V0.00390625V-0.996094C33.2709 -0.996094 30.7735 0.000560626 28.8517 1.64558L29.502 2.40527ZM36 0.00390625V1.00391C40.9706 1.00391 45 5.03334 45 10.0039H46H47C47 3.92877 42.0751 -0.996094 36 -0.996094V0.00390625ZM46 10.0039H45C45 14.9745 40.9706 19.0039 36 19.0039V20.0039V21.0039C42.0751 21.0039 47 16.079 47 10.0039H46ZM36 20.0039V19.0039C33.7646 19.0039 31.7227 18.1883 30.1479 16.8384L29.4971 17.5977L28.8463 18.3569C30.7687 20.0048 33.268 21.0039 36 21.0039V20.0039ZM29.4971 17.5977L28.8468 16.838C27.2724 18.1855 25.2329 19 23 19V20V21C25.7295 21 28.2258 20.0021 30.1473 18.3574L29.4971 17.5977ZM23 20V19C20.7658 19 18.7251 18.1849 17.1505 16.8362L16.5 17.5957L15.8495 18.3552C17.7715 20.0015 20.2693 21 23 21V20ZM16.5 17.5957L15.8495 16.8362C14.2749 18.1849 12.2342 19 10 19V20V21C12.7307 21 15.2285 20.0015 17.1505 18.3552L16.5 17.5957ZM10 20V19C5.02944 19 1 14.9706 1 10H0H-1C-1 16.0751 3.92487 21 10 21V20ZM0 10H1C1 5.02944 5.02944 1 10 1V0V-1C3.92487 -1 -1 3.92487 -1 10H0ZM10 0V1C12.2342 1 14.2752 1.81449 15.8495 3.16284L16.5 2.40332L17.1505 1.6438C15.2284 -0.00234894 12.7303 -1 10 -1V0ZM16.5 2.40332L17.1505 3.16284C18.7248 1.81449 20.7658 1 23 1V0V-1C20.2697 -1 17.7716 -0.00234888 15.8495 1.6438L16.5 2.40332Z" fill="white" mask="url(#path-1-inside-1_3083_30191)"/>
</svg>
